<svg xmlns="http://www.w3.org/2000/svg" width="16" height="16" fill="currentColor" class="bi bi-phone-vibrate" viewBox="0 0 16 16">
	<path d="M10 3C10.2652 3 10.5196 3.10536 10.7071 3.29289C10.8946 3.48043 11 3.73478 11 4V12C11 12.2652 10.8946 12.5196 10.7071 12.7071C10.5196 12.8946 10.2652 13 10 13H6C5.73478 13 5.48043 12.8946 5.29289 12.7071C5.10536 12.5196 5 12.2652 5 12V4C5 3.73478 5.10536 3.48043 5.29289 3.29289C5.48043 3.10536 5.73478 3 6 3H10ZM6 2C5.46957 2 4.96086 2.21071 4.58579 2.58579C4.21071 2.96086 4 3.46957 4 4V12C4 12.5304 4.21071 13.0391 4.58579 13.4142C4.96086 13.7893 5.46957 14 6 14H10C10.5304 14 11.0391 13.7893 11.4142 13.4142C11.7893 13.0391 12 12.5304 12 12V4C12 3.46957 11.7893 2.96086 11.4142 2.58579C11.0391 2.21071 10.5304 2 10 2H6Z"/>
	<path d="M8 12C8.26522 12 8.51957 11.8946 8.70711 11.7071C8.89464 11.5196 9 11.2652 9 11C9 10.7348 8.89464 10.4804 8.70711 10.2929C8.51957 10.1054 8.26522 10 8 10C7.73478 10 7.48043 10.1054 7.29289 10.2929C7.10536 10.4804 7 10.7348 7 11C7 11.2652 7.10536 11.5196 7.29289 11.7071C7.48043 11.8946 7.73478 12 8 12Z"/>
</svg>
